<svg xmlns="http://www.w3.org/2000/svg" width="135" height="20" viewBox="0 0 135 20" fill="none" class="logo-svg-image">
   <path d="M5.475 18.1C6.625 18.1 7.45 17.85 8.2 17.425V14.95C7.6 15.25 7 15.4 6.325 15.4C5.3 15.4 4.7 14.925 4.7 13.75V7.275H8.25V4.675H4.7V1.05H1.675V4.675H0V7.275H1.675V14.225C1.675 17.125 3.25 18.1 5.475 18.1Z" fill="white" fill-opacity="0.9" />
   <path d="M17.2371 18.175C21.3121 18.175 24.3121 15.05 24.3121 11.3V11.25C24.3121 7.475 21.3371 4.4 17.2871 4.4C13.2371 4.4 10.2371 7.525 10.2371 11.3V11.35C10.2371 15.1 13.2121 18.175 17.2371 18.175ZM17.2871 15.525C14.9371 15.525 13.2621 13.6 13.2621 11.3V11.25C13.2621 8.95 14.8121 7.05 17.2371 7.05C19.6121 7.05 21.2871 8.975 21.2871 11.3V11.35C21.2871 13.625 19.7371 15.525 17.2871 15.525Z" fill="white" fill-opacity="0.9" />
   <path d="M27.3678 17.875H30.4178V12.85C30.4178 9.35 32.2678 7.625 34.9178 7.625H35.0928V4.425C32.7678 4.325 31.2428 5.675 30.4178 7.65V4.675H27.3678V17.875Z" fill="white" fill-opacity="0.9" />
   <path d="M37.6949 17.875H40.7449V12.85C40.7449 9.35 42.5949 7.625 45.2449 7.625H45.4199V4.425C43.0949 4.325 41.5699 5.675 40.7449 7.65V4.675H37.6949V17.875Z" fill="white" fill-opacity="0.9" />
   <path d="M53.6576 18.175C56.0826 18.175 57.8076 17.2 59.0576 15.7L57.2826 14.125C56.2326 15.15 55.1826 15.7 53.7076 15.7C51.7576 15.7 50.2326 14.5 49.9076 12.35H59.6076C59.6326 12.05 59.6576 11.775 59.6576 11.5C59.6576 7.7 57.5326 4.4 53.3326 4.4C49.5576 4.4 46.8826 7.5 46.8826 11.275V11.325C46.8826 15.4 49.8326 18.175 53.6576 18.175ZM49.8826 10.35C50.1576 8.3 51.4576 6.875 53.3076 6.875C55.3076 6.875 56.4576 8.4 56.6576 10.35H49.8826Z" fill="white" fill-opacity="0.9" />
   <path d="M62.6955 17.875H64.9955V15.25H62.6955V17.875Z" fill="#CDDC39" />
   <path d="M72.899 18.15C75.174 18.15 76.674 17.1 77.574 15.925V17.875H79.424V9.975C79.424 8.325 78.974 7.075 78.099 6.2C77.149 5.25 75.749 4.775 73.924 4.775C72.049 4.775 70.649 5.2 69.224 5.85L69.799 7.425C70.999 6.875 72.199 6.475 73.724 6.475C76.149 6.475 77.574 7.675 77.574 10V10.45C76.424 10.125 75.249 9.9 73.599 9.9C70.324 9.9 68.074 11.35 68.074 14.075V14.125C68.074 16.775 70.499 18.15 72.899 18.15ZM73.274 16.625C71.524 16.625 70.024 15.675 70.024 14.05V14C70.024 12.375 71.374 11.325 73.799 11.325C75.374 11.325 76.649 11.6 77.599 11.875V13.125C77.599 15.175 75.649 16.625 73.274 16.625Z" fill="#CDDC39" />
   <path d="M83.5766 2.125H85.7766V0H83.5766V2.125ZM83.7016 17.875H85.6266V4.95H83.7016V17.875Z" fill="#CDDC39" />
</svg>